<svg width="19" height="19" viewBox="0 0 19 19" fill="none" xmlns="http://www.w3.org/2000/svg">
<path fill-rule="evenodd" clip-rule="evenodd" d="M9.50001 1.89999C5.12777 1.89999 1.58334 5.44437 1.58334 9.81666C1.58334 14.1889 5.12777 17.7333 9.50001 17.7333C13.8723 17.7333 17.4167 14.1889 17.4167 9.81666C17.4167 5.44437 13.8723 1.89999 9.50001 1.89999ZM9.50001 16.15C6.00782 16.15 3.16668 13.3089 3.16668 9.81666C3.16668 6.32447 6.00782 3.48333 9.50001 3.48333C12.9922 3.48333 15.8333 6.32447 15.8333 9.81666C15.8333 13.3089 12.9922 16.15 9.50001 16.15ZM10.4913 6.64999C10.4913 7.22398 10.0734 7.63958 9.50805 7.63958C8.91982 7.63958 8.51216 7.22398 8.51216 6.63901C8.51216 6.07679 8.93086 5.66041 9.50805 5.66041C10.0734 5.66041 10.4913 6.07679 10.4913 6.64999ZM8.71008 9.02499H10.2934V13.775H8.71008V9.02499Z" fill="#4C72A2"/>
</svg>
