<svg width="21" height="21" viewBox="0 0 21 21" fill="none" xmlns="http://www.w3.org/2000/svg">
<path d="M9.45 2.1V7.35C9.45 7.90695 9.22875 8.4411 8.83492 8.83492C8.4411 9.22875 7.90695 9.45 7.35 9.45H2.1C1.54305 9.45 1.0089 9.22875 0.615076 8.83492C0.221249 8.4411 0 7.90695 0 7.35V2.1C0 1.54305 0.221249 1.0089 0.615076 0.615076C1.0089 0.221249 1.54305 0 2.1 0H7.35C7.90695 0 8.4411 0.221249 8.83492 0.615076C9.22875 1.0089 9.45 1.54305 9.45 2.1ZM18.9 0H13.65C13.093 0 12.5589 0.221249 12.1651 0.615076C11.7712 1.0089 11.55 1.54305 11.55 2.1V7.35C11.55 7.90695 11.7712 8.4411 12.1651 8.83492C12.5589 9.22875 13.093 9.45 13.65 9.45H18.9C19.457 9.45 19.9911 9.22875 20.3849 8.83492C20.7787 8.4411 21 7.90695 21 7.35V2.1C21 1.54305 20.7787 1.0089 20.3849 0.615076C19.9911 0.221249 19.457 0 18.9 0ZM7.35 11.55H2.1C1.54305 11.55 1.0089 11.7712 0.615076 12.1651C0.221249 12.5589 0 13.093 0 13.65V18.9C0 19.457 0.221249 19.9911 0.615076 20.3849C1.0089 20.7787 1.54305 21 2.1 21H7.35C7.90695 21 8.4411 20.7787 8.83492 20.3849C9.22875 19.9911 9.45 19.457 9.45 18.9V13.65C9.45 13.093 9.22875 12.5589 8.83492 12.1651C8.4411 11.7712 7.90695 11.55 7.35 11.55ZM12.6 16.8H15.75C16.0285 16.8 16.2955 16.6894 16.4925 16.4925C16.6894 16.2955 16.8 16.0285 16.8 15.75V12.6C16.8 12.3215 16.6894 12.0545 16.4925 11.8575C16.2955 11.6606 16.0285 11.55 15.75 11.55H12.6C12.3215 11.55 12.0545 11.6606 11.8575 11.8575C11.6606 12.0545 11.55 12.3215 11.55 12.6V15.75C11.55 16.0285 11.6606 16.2955 11.8575 16.4925C12.0545 16.6894 12.3215 16.8 12.6 16.8ZM19.95 11.55C19.6715 11.55 19.4044 11.6606 19.2075 11.8575C19.0106 12.0545 18.9 12.3215 18.9 12.6V17.85C18.9 18.1285 18.7894 18.3955 18.5925 18.5925C18.3955 18.7894 18.1285 18.9 17.85 18.9H12.6C12.3215 18.9 12.0545 19.0106 11.8575 19.2075C11.6606 19.4044 11.55 19.6715 11.55 19.95C11.55 20.2285 11.6606 20.4955 11.8575 20.6925C12.0545 20.8894 12.3215 21 12.6 21H17.85C18.6854 21 19.4866 20.6681 20.0774 20.0774C20.6681 19.4866 21 18.6854 21 17.85V12.6C21 12.3215 20.8894 12.0545 20.6925 11.8575C20.4955 11.6606 20.2285 11.55 19.95 11.55Z" fill="#F0F0F1"/>
</svg>
