<svg width="24" height="24" viewBox="0 0 24 24" fill="none" xmlns="http://www.w3.org/2000/svg">
<g clip-path="url(#clip0_809_16)">
<path d="M12.001 1.59392C2.73101 1.59092 -1.91199 12.7969 4.64101 19.3519C6.09578 20.8071 7.94941 21.7981 9.96746 22.1998C11.9855 22.6014 14.0773 22.3955 15.9784 21.6082C17.8795 20.821 19.5044 19.4876 20.6476 17.7768C21.7908 16.066 22.401 14.0545 22.401 11.9969C22.401 6.25292 17.746 1.59592 12.001 1.59392ZM6.11001 6.78292C6.61101 4.18492 10.003 3.48892 11.486 5.67992C12.969 7.86992 11.064 10.7619 8.46601 10.2619C8.08282 10.1883 7.71788 10.0399 7.39206 9.8252C7.06624 9.61049 6.78592 9.33369 6.56713 9.0106C6.34833 8.68752 6.19535 8.32448 6.11691 7.94224C6.03848 7.56001 6.03613 7.16606 6.11001 6.78292ZM10.432 15.7709C9.92801 18.3679 6.53501 19.0589 5.05501 16.8669C3.57501 14.6749 5.48201 11.7869 8.08001 12.2879C8.46325 12.362 8.82814 12.5108 9.15381 12.726C9.47948 12.9412 9.75954 13.2184 9.97798 13.5419C10.1964 13.8654 10.349 14.2287 10.4269 14.6112C10.5048 14.9937 10.5065 15.3878 10.432 15.7709ZM11.692 13.3659C10.54 13.1429 10.23 11.6389 11.201 10.9789C12.171 10.3189 13.457 11.1589 13.241 12.3129C13.209 12.4839 13.1435 12.6469 13.0482 12.7925C12.953 12.9381 12.8299 13.0635 12.686 13.1613C12.5421 13.2592 12.3803 13.3277 12.2099 13.3628C12.0395 13.3979 11.8628 13.3989 11.692 13.3659ZM17.89 17.2039C17.389 19.8019 13.997 20.4969 12.514 18.3069C11.03 16.1159 12.935 13.2249 15.534 13.7239C15.9173 13.7975 16.2823 13.946 16.6082 14.1607C16.9341 14.3755 17.2145 14.6524 17.4333 14.9756C17.6521 15.2988 17.8051 15.6619 17.8834 16.0443C17.9618 16.4267 17.964 16.8207 17.89 17.2039ZM15.923 11.7019C13.325 11.2009 12.63 7.80592 14.821 6.32192C17.011 4.83892 19.902 6.74392 19.403 9.34192C19.3299 9.72557 19.1818 10.091 18.9672 10.4174C18.7526 10.7437 18.4758 11.0245 18.1525 11.2438C17.8293 11.463 17.466 11.6163 17.0834 11.6949C16.7008 11.7735 16.3065 11.7759 15.923 11.7019ZM13.59 23.2639L15.854 23.8739C16.806 24.1265 17.8193 23.9907 18.6712 23.4964C19.5231 23.0021 20.1439 22.1898 20.397 21.2379L21.037 18.8359C19.2352 21.2361 16.5583 22.8275 13.589 23.2639H13.59ZM21.233 3.59892L18.87 2.96992C20.0642 3.88846 21.064 5.03506 21.8114 6.34315C22.5588 7.65123 23.039 9.09475 23.224 10.5899L23.874 8.13092C24.1228 7.17965 23.9842 6.16857 23.4888 5.31925C22.9934 4.46994 22.1815 3.85166 21.231 3.59992L21.233 3.59892ZM0.672011 13.8089L0.131011 15.8489C-0.121592 16.8009 0.0141841 17.8142 0.508489 18.6661C1.00279 19.518 1.81517 20.1388 2.76701 20.3919L4.87401 20.9539C2.62455 19.1854 1.1249 16.6343 0.672011 13.8089ZM10.357 0.701917L8.15001 0.125917C7.6783 0.000260472 7.18645 -0.0311959 6.70257 0.0333455C6.2187 0.097887 5.75228 0.257161 5.33 0.502062C4.90771 0.746963 4.53784 1.07269 4.24151 1.46062C3.94518 1.84855 3.72821 2.29108 3.60301 2.76292L3.05201 4.84492C4.86973 2.58255 7.48237 1.10044 10.357 0.701917Z" fill="#4C72A2"/>
</g>
<defs>
<clipPath id="clip0_809_16">
<rect width="24" height="24" fill="white"/>
</clipPath>
</defs>
</svg>
