<svg width="24" height="19" viewBox="0 0 24 19" fill="none" xmlns="http://www.w3.org/2000/svg">
<path d="M10 14V10" stroke="white" stroke-width="2" stroke-linecap="round"/>
<path d="M7.33333 1L5 6M16.6667 1L19 6" stroke="white" stroke-width="2" stroke-linecap="round"/>
<path d="M14 14V10" stroke="white" stroke-width="2" stroke-linecap="round"/>
<path d="M1 7C1.59718 7 1.89577 7 2.15931 7.05305C2.83658 7.18941 3.41753 7.57842 3.75726 8.1231C3.88946 8.33507 3.97526 8.59247 4.14686 9.10727L6.06589 14.8643C6.56939 16.3749 6.82114 17.1301 7.47069 17.5651C8.12024 18 8.99635 18 10.7486 18H13.2514C15.0036 18 15.8798 18 16.5293 17.5651C17.1788 17.1301 17.4306 16.3749 17.9341 14.8643L19.8531 9.10727C20.0247 8.59247 20.1105 8.33507 20.2428 8.1231C20.5824 7.57842 21.1634 7.18941 21.8407 7.05305C22.1042 7 22.4028 7 23 7" stroke="white" stroke-width="2" stroke-linecap="round"/>
<path d="M1 6H23" stroke="white" stroke-width="2" stroke-linecap="round"/>
</svg>
