<svg width="25" height="25" viewBox="0 0 25 25" fill="none" xmlns="http://www.w3.org/2000/svg">
<g clip-path="url(#clip0_760_170)">
<path d="M24.7961 6.93361C24.6508 6.72736 24.414 6.60392 24.1617 6.60392H7.58124L6.32577 2.27579C5.83358 0.571106 4.66405 0.387512 4.18436 0.387512H0.837488C0.408582 0.387512 0.0617065 0.735168 0.0617065 1.16329C0.0617065 1.59142 0.409363 1.93907 0.837488 1.93907H4.18358C4.28983 1.93907 4.61249 1.93907 4.8328 2.70001L9.15077 18.568C9.24452 18.9024 9.54999 19.1336 9.89764 19.1336H20.4437C20.7711 19.1336 21.0633 18.9289 21.1734 18.6203L24.8906 7.64142C24.9766 7.40392 24.9406 7.13907 24.7953 6.93282L24.7961 6.93361ZM19.8984 17.5828H10.4875L8.01796 8.15626H23.0594L19.8984 17.5828ZM18.3594 20.7063C17.2805 20.7063 16.4062 21.5805 16.4062 22.6594C16.4062 23.7383 17.2805 24.6125 18.3594 24.6125C19.4383 24.6125 20.3125 23.7383 20.3125 22.6594C20.3125 21.5805 19.4383 20.7063 18.3594 20.7063ZM11.3281 20.7063C10.2492 20.7063 9.37499 21.5805 9.37499 22.6594C9.37499 23.7383 10.2492 24.6125 11.3281 24.6125C12.407 24.6125 13.2812 23.7383 13.2812 22.6594C13.2812 21.5805 12.407 20.7063 11.3281 20.7063Z" fill="#888B91" stroke="#888B91"/>
</g>
<defs>
<clipPath id="clip0_760_170">
<rect width="25" height="25" fill="white"/>
</clipPath>
</defs>
</svg>
