<svg width="19" height="19" viewBox="0 0 19 19" fill="none" xmlns="http://www.w3.org/2000/svg">
<path d="M7.12496 9.50001C7.12496 9.93725 6.77051 10.2917 6.33329 10.2917C5.89607 10.2917 5.54163 9.93725 5.54163 9.50001C5.54163 9.06277 5.89607 8.70834 6.33329 8.70834C6.77051 8.70834 7.12496 9.06277 7.12496 9.50001Z" fill="#888B91" stroke="#888B91"/>
<path d="M10.2916 9.50001C10.2916 9.93725 9.93722 10.2917 9.49998 10.2917C9.06274 10.2917 8.70831 9.93725 8.70831 9.50001C8.70831 9.06277 9.06274 8.70834 9.49998 8.70834C9.93722 8.70834 10.2916 9.06277 10.2916 9.50001Z" fill="#888B91" stroke="#888B91"/>
<path d="M12.6667 10.2917C13.1039 10.2917 13.4583 9.93725 13.4583 9.50001C13.4583 9.06277 13.1039 8.70834 12.6667 8.70834C12.2294 8.70834 11.875 9.06277 11.875 9.50001C11.875 9.93725 12.2294 10.2917 12.6667 10.2917Z" fill="#888B91" stroke="#888B91"/>
<path fill-rule="evenodd" clip-rule="evenodd" d="M9.54542 0.989594H9.45454C7.62709 0.989586 6.19492 0.989578 5.0775 1.13981C3.93375 1.29359 3.03123 1.61448 2.32284 2.32287C1.61445 3.03126 1.29356 3.93378 1.13978 5.07753C0.989547 6.19495 0.989555 7.6271 0.989563 9.45457V9.54545C0.989555 11.3729 0.989547 12.8051 1.13978 13.9225C1.29356 15.0662 1.61445 15.9688 2.32284 16.6772C3.03123 17.3856 3.93375 17.7064 5.0775 17.8602C6.19492 18.0104 7.62708 18.0104 9.45454 18.0104H9.54542C11.3729 18.0104 12.805 18.0104 13.9225 17.8602C15.0662 17.7064 15.9688 17.3856 16.6772 16.6772C17.3855 15.9688 17.7064 15.0662 17.8602 13.9225C18.0104 12.8051 18.0104 11.3729 18.0104 9.54545V9.45457C18.0104 7.62711 18.0104 6.19495 17.8602 5.07753C17.7064 3.93378 17.3855 3.03126 16.6772 2.32287C15.9688 1.61448 15.0662 1.29359 13.9225 1.13981C12.805 0.989578 11.3729 0.989586 9.54542 0.989594ZM3.16253 3.16256C3.6135 2.71158 4.22366 2.45279 5.23573 2.31672C6.26488 2.17835 7.61721 2.17709 9.49998 2.17709C11.3827 2.17709 12.735 2.17835 13.7642 2.31672C14.7763 2.45279 15.3864 2.71158 15.8374 3.16256C16.2884 3.61353 16.5472 4.22369 16.6832 5.23576C16.8216 6.26491 16.8229 7.61724 16.8229 9.50001C16.8229 11.3828 16.8216 12.7351 16.6832 13.7642C16.5472 14.7763 16.2884 15.3864 15.8374 15.8375C15.3864 16.2885 14.7763 16.5473 13.7642 16.6833C12.735 16.8217 11.3827 16.8229 9.49998 16.8229C7.61721 16.8229 6.26488 16.8217 5.23573 16.6833C4.22366 16.5473 3.6135 16.2885 3.16253 15.8375C2.71155 15.3864 2.45276 14.7763 2.31669 13.7642C2.17832 12.7351 2.17706 11.3828 2.17706 9.50001C2.17706 7.61724 2.17832 6.26491 2.31669 5.23576C2.45276 4.22369 2.71155 3.61353 3.16253 3.16256Z" fill="#888B91"/>
</svg>
