<svg width="14" height="15" viewBox="0 0 14 15" fill="none" xmlns="http://www.w3.org/2000/svg">
<path d="M2.02458 8.89688L1.13792 7.94688C0.776252 7.55938 0.776252 6.92188 1.13792 6.53438L2.02458 5.58437C2.17625 5.42187 2.29875 5.10312 2.29875 4.87812V3.53436C2.29875 2.98436 2.71875 2.53437 3.23208 2.53437H4.48625C4.69625 2.53437 4.99375 2.40314 5.14541 2.24064L6.03208 1.29063C6.39375 0.903125 6.98875 0.903125 7.35041 1.29063L8.23708 2.24064C8.38875 2.40314 8.68625 2.53437 8.89625 2.53437H10.1504C10.6637 2.53437 11.0837 2.98436 11.0837 3.53436V4.87812C11.0837 5.10312 11.2062 5.42187 11.3579 5.58437L12.2446 6.53438C12.6062 6.92188 12.6062 7.55938 12.2446 7.94688L11.3579 8.89688C11.2062 9.05938 11.0837 9.37813 11.0837 9.60313V10.9468C11.0837 11.4968 10.6637 11.9469 10.1504 11.9469H8.89625C8.68625 11.9469 8.38875 12.0781 8.23708 12.2406L7.35041 13.1906C6.98875 13.5781 6.39375 13.5781 6.03208 13.1906L5.14541 12.2406C4.99375 12.0781 4.69625 11.9469 4.48625 11.9469H3.23208C2.71875 11.9469 2.29875 11.4968 2.29875 10.9468V9.60313C2.29875 9.37188 2.17625 9.05313 2.02458 8.89688Z" stroke="#F0F0F1" stroke-width="1.5" stroke-linecap="round" stroke-linejoin="round"/>
<path d="M4.94772 9.10913L8.44772 5.35913" stroke="#F0F0F1" stroke-width="1.5" stroke-linecap="round" stroke-linejoin="round"/>
<path d="M8.15283 8.79663H8.15846" stroke="#F0F0F1" stroke-width="2" stroke-linecap="round" stroke-linejoin="round"/>
<path d="M5.23618 5.67163H5.24179" stroke="#F0F0F1" stroke-width="2" stroke-linecap="round" stroke-linejoin="round"/>
</svg>
