<svg width="56" height="16" viewBox="0 0 56 16" fill="none" xmlns="http://www.w3.org/2000/svg">
<path d="M8 15.5C12.1421 15.5 15.5 12.1421 15.5 8C15.5 3.85786 12.1421 0.5 8 0.5C3.85786 0.5 0.5 3.85786 0.5 8C0.5 12.1421 3.85786 15.5 8 15.5Z" fill="black"/>
<path d="M28 15.5C32.1421 15.5 35.5 12.1421 35.5 8C35.5 3.85786 32.1421 0.5 28 0.5C23.8579 0.5 20.5 3.85786 20.5 8C20.5 12.1421 23.8579 15.5 28 15.5Z" fill="black"/>
<path d="M48 15.5C52.1421 15.5 55.5 12.1421 55.5 8C55.5 3.85786 52.1421 0.5 48 0.5C43.8579 0.5 40.5 3.85786 40.5 8C40.5 12.1421 43.8579 15.5 48 15.5Z" fill="black"/>
</svg>
