<svg width="51" height="46" viewBox="0 0 51 46" fill="none" xmlns="http://www.w3.org/2000/svg">
<path d="M47.9668 8.14734H42.9668M47.9668 23.1473H35.4668M47.9668 38.1473H35.4668M12.9668 43.1473V27.0503C12.9668 26.5303 12.9668 26.2703 12.9157 26.0216C12.8705 25.8011 12.7956 25.5876 12.6931 25.3868C12.5776 25.1608 12.4151 24.9578 12.0903 24.5516L3.84332 14.243C3.51845 13.8369 3.35602 13.6339 3.2405 13.4078C3.13802 13.2072 3.06312 12.9936 3.01785 12.773C2.9668 12.5243 2.9668 12.2643 2.9668 11.7442V7.14734C2.9668 5.74721 2.9668 5.04714 3.23927 4.51236C3.47897 4.04196 3.86142 3.65951 4.33182 3.41981C4.8666 3.14734 5.56667 3.14734 6.9668 3.14734H28.9668C30.367 3.14734 31.067 3.14734 31.6018 3.41981C32.0723 3.65951 32.4545 4.04196 32.6943 4.51236C32.9668 5.04714 32.9668 5.74721 32.9668 7.14734V11.7442C32.9668 12.2643 32.9668 12.5243 32.9158 12.773C32.8705 12.9936 32.7955 13.2072 32.693 13.4078C32.5775 13.6339 32.415 13.8369 32.0903 14.243L23.8433 24.5516C23.5185 24.9578 23.356 25.1608 23.2405 25.3868C23.138 25.5876 23.063 25.8011 23.0178 26.0216C22.9668 26.2703 22.9668 26.5303 22.9668 27.0503V35.6473L12.9668 43.1473Z" stroke="black" stroke-width="5" stroke-linecap="round" stroke-linejoin="round"/>
</svg>
