<svg width="16" height="16" viewBox="0 0 16 16" fill="none" xmlns="http://www.w3.org/2000/svg">
<path d="M12.0001 6.66663H8.66675" stroke="#888B91" stroke-width="1.5" stroke-linecap="round"/>
<path d="M14.6667 7.86525C14.6667 6.11034 14.6667 5.23288 14.1537 4.66253C14.1066 4.61007 14.0566 4.56014 14.0042 4.51295C13.4338 3.99998 12.5564 3.99998 10.8014 3.99998H10.5523C9.78317 3.99998 9.39864 3.99998 9.04031 3.89783C8.84344 3.84171 8.65364 3.76312 8.47477 3.6636C8.14917 3.48243 7.87724 3.2105 7.33337 2.66665L6.96651 2.29981C6.78424 2.11753 6.69311 2.02639 6.59733 1.94699C6.18439 1.60467 5.67781 1.39484 5.14375 1.3449C5.01988 1.33331 4.89099 1.33331 4.63321 1.33331C4.04485 1.33331 3.75067 1.33331 3.50563 1.37955C2.42691 1.58307 1.58313 2.42685 1.37961 3.50557C1.33337 3.75061 1.33337 4.04479 1.33337 4.63315M14.6609 10.6666C14.637 12.3197 14.5144 13.2568 13.8856 13.8856C13.1046 14.6666 11.8475 14.6666 9.33337 14.6666H6.66671C4.15255 14.6666 2.89547 14.6666 2.11442 13.8856C1.33337 13.1046 1.33337 11.8474 1.33337 9.33331V7.33331" stroke="#888B91" stroke-width="1.5" stroke-linecap="round"/>
</svg>
