<svg width="38" height="38" viewBox="0 0 38 38" fill="none" xmlns="http://www.w3.org/2000/svg">
<path d="M25.1798 4.67622L28.5303 6.44448C32.135 8.34684 33.9373 9.29801 34.9381 11.0072C35.9389 12.7165 35.9389 14.8434 35.9389 19.0972V19.2943C35.9389 23.548 35.9389 25.6751 34.9381 27.3843C33.9373 29.0935 32.135 30.0445 28.5303 31.947L25.1798 33.7152C22.2386 35.2674 20.7681 36.0435 19.1861 36.0435C17.6041 36.0435 16.1336 35.2674 13.1924 33.7152L9.84187 31.947C6.23723 30.0445 4.4349 29.0935 3.4341 27.3843C2.43329 25.6751 2.43329 23.548 2.43329 19.2943V19.0972C2.43329 14.8434 2.43329 12.7165 3.4341 11.0072C4.4349 9.29801 6.23723 8.34684 9.84187 6.44448L13.1924 4.67622C16.1336 3.12401 17.6041 2.3479 19.1861 2.3479C20.7681 2.3479 22.2386 3.12401 25.1798 4.67622Z" stroke="#4D74A2" stroke-width="3.75" stroke-linecap="round"/>
<path opacity="0.5" d="M34.2636 11.6142L27.5625 14.9837M27.5625 14.9837C27.5625 14.9837 27.052 15.2404 26.7249 15.4049C23.7807 16.8853 19.1861 19.1957 19.1861 19.1957M27.5625 14.9837V20.8805M27.5625 14.9837L11.6473 6.55981M19.1861 19.1957L4.10855 11.6142M19.1861 19.1957V35.2011" stroke="#4D74A2" stroke-width="3.75" stroke-linecap="round"/>
</svg>
