<svg width="38" height="36" viewBox="0 0 38 36" fill="none" xmlns="http://www.w3.org/2000/svg">
<path d="M32.1493 13.9445C32.1493 6.59764 26.2589 0.673828 18.9864 0.673828C11.7139 0.673828 5.82346 6.59764 5.82346 13.9114C5.82346 13.9114 5.82346 13.9114 5.82346 13.9445C2.89471 14.11 0.558289 16.5589 0.558289 19.5374V20.1992C0.558289 23.3101 3.05924 25.8252 6.15253 25.8252H6.4487L8.78512 29.5648C10.4305 32.2123 13.2276 33.7678 16.3209 33.7678H16.7816C17.0778 34.893 18.0979 35.7534 19.3155 35.7534C20.7634 35.7534 21.948 34.562 21.948 33.1059C21.948 31.6497 20.7634 30.4584 19.3155 30.4584C18.0979 30.4584 17.0778 31.3188 16.7816 32.444H16.3209C13.6883 32.444 11.2861 31.0872 9.90396 28.8368L7.99534 25.8252H8.45604C9.18001 25.8252 9.77234 25.2295 9.77234 24.5015V15.2352C9.77234 14.5071 9.18001 13.9114 8.45604 13.9114H7.13975C7.13975 7.32571 12.4378 1.99759 18.9864 1.99759C25.5349 1.99759 30.833 7.32571 30.833 13.9114H29.5167C28.7928 13.9114 28.2004 14.5071 28.2004 15.2352V24.5015C28.2004 25.2295 28.7928 25.8252 29.5167 25.8252H31.8202C34.9135 25.8252 37.4145 23.3101 37.4145 20.1992V19.5374C37.4145 16.5589 35.0781 14.11 32.1493 13.9445ZM19.3155 31.7821C20.0394 31.7821 20.6318 32.3778 20.6318 33.1059C20.6318 33.834 20.0394 34.4296 19.3155 34.4296C18.5915 34.4296 17.9992 33.834 17.9992 33.1059C17.9992 32.3778 18.5915 31.7821 19.3155 31.7821ZM8.45604 15.2352V24.5015H6.15253C3.78321 24.5015 1.87458 22.582 1.87458 20.1992V19.5374C1.87458 17.1546 3.78321 15.2352 6.15253 15.2352H8.45604ZM36.0982 20.1992C36.0982 22.582 34.1896 24.5015 31.8202 24.5015H29.5167V15.2352H31.8202C34.1896 15.2352 36.0982 17.1546 36.0982 19.5374V20.1992Z" fill="#4D74A2"/>
<path d="M24.449 5.6711C24.3832 5.63801 24.2844 5.57182 24.1857 5.50563C24.087 5.43944 23.9883 5.37326 23.9225 5.34016C23.6263 5.1416 23.1985 5.24088 23.034 5.57182C22.8694 5.90276 22.9352 6.26679 23.2643 6.46536C23.3301 6.49845 23.4289 6.56464 23.5276 6.63083C23.6263 6.69701 23.725 6.7632 23.8237 6.79629C23.9225 6.86248 24.0541 6.89558 24.1528 6.89558C24.3832 6.89558 24.5806 6.79629 24.7122 6.56464C24.8768 6.26679 24.7781 5.86966 24.449 5.6711Z" fill="#4D74A2"/>
<path d="M18.9864 3.98315C16.1893 3.98315 13.5567 5.20763 11.7468 7.32564C11.5164 7.59039 11.5493 8.02061 11.8126 8.25227C11.9442 8.35155 12.0759 8.41774 12.2404 8.41774C12.4378 8.41774 12.6024 8.35155 12.734 8.18608C14.3136 6.36592 16.5842 5.30691 18.9864 5.30691C19.5787 5.30691 20.1711 5.3731 20.7634 5.50548C21.1254 5.57166 21.4544 5.34001 21.5532 5.00907C21.6519 4.67813 21.3886 4.31409 21.0596 4.21481C20.3685 4.04934 19.6774 3.98315 18.9864 3.98315Z" fill="#4D74A2"/>
</svg>
