<svg width="41" height="41" viewBox="0 0 41 41" fill="none" xmlns="http://www.w3.org/2000/svg">
<path d="M17.641 3.17445C18.9275 1.60852 21.314 1.60852 22.6005 3.17445L24.5304 5.52367C25.211 6.35211 26.2562 6.78656 27.3198 6.68309L30.3404 6.38923C32.3557 6.19315 34.048 7.89617 33.8514 9.92289L33.5611 12.9176C33.4569 13.9923 33.8929 15.0485 34.7233 15.7331L37.0406 17.6436C38.6105 18.9377 38.6105 21.3528 37.0406 22.6468L34.7233 24.5573C33.8929 25.2419 33.4569 26.2981 33.5611 27.3729L33.8514 30.3676C34.048 32.3942 32.3557 34.0973 30.3404 33.9011L27.3198 33.6074C26.2562 33.5039 25.211 33.9383 24.5304 34.7668L22.6005 37.116C21.314 38.682 18.9275 38.682 17.641 37.116L15.7111 34.7668C15.0305 33.9383 13.9853 33.5039 12.9217 33.6074L9.90114 33.9011C7.8857 34.0973 6.19358 32.3942 6.39006 30.3676L6.68038 27.3729C6.78458 26.2981 6.34861 25.2419 5.51818 24.5573L3.20083 22.6468C1.63097 21.3528 1.63097 18.9377 3.20083 17.6436L5.51818 15.7331C6.34861 15.0485 6.78458 13.9923 6.68038 12.9176L6.39006 9.92289C6.19358 7.89617 7.8857 6.19315 9.90114 6.38923L12.9217 6.68309C13.9853 6.78656 15.0305 6.35211 15.7111 5.52367L17.641 3.17445Z" stroke="#4D74A2" stroke-width="3.6"/>
<path d="M16.2042 30L23.6275 15.3068V15.1875H15.011V12.5455H26.9003V15.2472L19.4855 30H16.2042Z" fill="#4D74A2"/>
</svg>
