<svg width="34" height="37" viewBox="0 0 34 37" fill="none" xmlns="http://www.w3.org/2000/svg">
<path d="M3.76478 3.03288H27.7458V15.1632H30.7433V0H0.766846V36.3913H17.2541V33.3584H3.76478V3.03288Z" fill="#4D74A2"/>
<path d="M25.497 16.9319L17.2536 21.102V24.7606C17.2536 29.3333 19.8073 33.5135 23.8499 35.5583L25.497 36.3913L27.1441 35.5583C31.1867 33.5135 33.7404 29.3333 33.7404 24.7606V21.102L25.497 16.9319ZM30.7429 24.7602C30.7429 28.2064 28.8503 31.3044 25.8036 32.8455L25.497 33.0006L25.1904 32.8455C22.1437 31.3044 20.2511 28.206 20.2511 24.7602V22.9761L25.497 20.3226L30.7429 22.9761V24.7602Z" fill="#4D74A2"/>
<path d="M23.2319 25.2942L21.743 26.9986L25.5647 30.4163L30.2339 24.9811L28.5376 23.4885L25.3557 27.1927L23.2319 25.2942ZM6.7619 7.58154H24.7479V10.614H6.7619V7.58154ZM6.7619 15.1631H18.7524V18.1956H6.7619V15.1631ZM6.7619 22.7443H12.7574V25.7768H6.7619V22.7443Z" fill="#4D74A2"/>
</svg>
