<svg width="23" height="24" viewBox="0 0 23 24" fill="none" xmlns="http://www.w3.org/2000/svg">
<path fill-rule="evenodd" clip-rule="evenodd" d="M6.89137 0.740009C5.03558 0.823742 3.42708 1.27746 2.12826 2.5708C0.824894 3.87094 0.376813 5.48581 0.292871 7.32229C0.240691 8.46854 -0.0644312 17.1282 0.820358 19.3992C1.41702 20.9313 2.59218 22.1093 4.13829 22.7079C4.85973 22.9885 5.68329 23.1784 6.89137 23.2339C16.9927 23.691 20.7372 23.4421 22.3162 19.3992C22.5964 18.6795 22.7892 17.8567 22.8425 16.6516C23.3042 6.52435 22.7677 4.32921 21.0072 2.5708C19.6108 1.17788 17.9682 0.229688 6.89137 0.740009ZM6.98436 21.1971C5.87837 21.1473 5.27831 20.9631 4.87789 20.808C3.87059 20.4165 3.11399 19.663 2.72491 18.6616C2.0511 16.936 2.27458 8.7403 2.3347 7.41414C2.39369 6.11513 2.65685 4.92793 3.5734 4.01139C4.70775 2.87985 6.1733 2.32529 16.1521 2.77565C17.4544 2.83448 18.6443 3.09711 19.5631 4.01139C20.6975 5.14292 21.2601 6.61976 20.8018 16.5603C20.7519 17.6636 20.567 18.2622 20.4116 18.6616C19.385 21.2924 17.0233 21.6577 6.98436 21.1971ZM16.2622 5.94627C16.2622 6.69536 16.8713 7.30448 17.6234 7.30448C18.3755 7.30448 18.9858 6.69536 18.9858 5.94627C18.9858 5.1972 18.3755 4.58863 17.6234 4.58863C16.8713 4.58863 16.2622 5.1972 16.2622 5.94627ZM5.7434 11.9864C5.7434 15.1954 8.35126 17.7972 11.5683 17.7972C14.7853 17.7972 17.3931 15.1954 17.3931 11.9864C17.3931 8.77735 14.7853 6.17728 11.5683 6.17728C8.35126 6.17728 5.7434 8.77735 5.7434 11.9864ZM7.78749 11.9864C7.78749 9.90437 9.47994 8.21514 11.5683 8.21514C13.6566 8.21514 15.349 9.90437 15.349 11.9864C15.349 14.0695 13.6566 15.7593 11.5683 15.7593C9.47994 15.7593 7.78749 14.0695 7.78749 11.9864Z" fill="#4C72A2"/>
</svg>
