<svg width="19" height="20" viewBox="0 0 19 20" fill="none" xmlns="http://www.w3.org/2000/svg">
<path fill-rule="evenodd" clip-rule="evenodd" d="M4.73255 6.25781V20H0.000356252V6.25781H4.73255ZM11.866 6.23242V7.04218C12.5568 6.57284 13.3535 6.3 14.5615 6.3C18.4959 6.3 19 9.51527 19 12.3163V19.9996H14.244V12.6993C14.244 11.4715 13.8267 11.2387 13.055 11.2387C12.3214 11.2387 11.866 11.484 11.866 12.6993V19.9996H7.11007V6.23242H11.866ZM2.3661 0C3.67161 0 4.7322 1.11765 4.7322 2.49061C4.7322 3.86358 3.67161 4.98123 2.36609 4.98123C1.06178 4.98123 0 3.86358 0 2.4906C0 1.11766 1.06177 0 2.3661 0Z" fill="#4C72A2"/>
</svg>
