<svg width="19" height="19" viewBox="0 0 19 19" fill="none" xmlns="http://www.w3.org/2000/svg">
<path d="M13 6C13 3.52515 13 2.28773 12.2312 1.51886C11.4623 0.750002 10.2249 0.750002 7.75 0.750002L6.875 0.750002C4.40015 0.750002 3.16273 0.750002 2.39386 1.51886C1.625 2.28773 1.625 3.52515 1.625 6L1.625 13C1.625 15.4749 1.625 16.7123 2.39386 17.4812C3.16272 18.25 4.40015 18.25 6.875 18.25L7.75 18.25C10.2248 18.25 11.4623 18.25 12.2312 17.4812C13 16.7123 13 15.4749 13 13" stroke="#EFEFEF" stroke-width="1.5" stroke-linecap="round"/>
<path d="M13 2.9375C15.0624 2.9375 16.0936 2.9375 16.7343 3.57818C17.375 4.21894 17.375 5.25013 17.375 7.3125L17.375 11.6875C17.375 13.7499 17.375 14.7811 16.7343 15.4218C16.0936 16.0625 15.0624 16.0625 13 16.0625" stroke="#EFEFEF" stroke-width="1.5"/>
<path d="M14.75 9.5L6.875 9.5M6.875 9.5L9.0625 7.3125M6.875 9.5L9.0625 11.6875" stroke="#EFEFEF" stroke-width="1.5" stroke-linecap="round" stroke-linejoin="round"/>
</svg>
