<svg width="19" height="18" viewBox="0 0 19 18" fill="none" xmlns="http://www.w3.org/2000/svg">
<path d="M9.49996 18C14.6877 18 19 13.9235 19 9C19 4.0853 14.6784 0 9.49066 0C4.29358 0 0 4.0853 0 9C0 13.9235 4.30292 18 9.49996 18ZM9.49996 3.91766C11.2789 3.91766 12.6946 5.40001 12.6946 7.18237C12.6946 9.0794 11.2882 10.5265 9.49996 10.5088C7.70243 10.4912 6.30538 9.0794 6.30538 7.18237C6.28675 5.40001 7.71173 3.91766 9.49996 3.91766ZM15.1627 14.2235L15.1906 14.3382C13.7563 15.7853 11.6328 16.6147 9.49996 16.6147C7.35782 16.6147 5.23427 15.7853 3.79999 14.3382L3.82793 14.2235C4.6382 13.1647 6.63136 12.0088 9.49996 12.0088C12.3593 12.0088 14.3617 13.1647 15.1627 14.2235Z" fill="white"/>
</svg>
