<svg width="13" height="13" viewBox="0 0 13 13" fill="none" xmlns="http://www.w3.org/2000/svg">
<path d="M5.48438 4.80731C5.48438 4.2464 5.9391 3.79169 6.5 3.79169C7.0609 3.79169 7.51563 4.2464 7.51563 4.80731C7.51563 5.17968 7.31521 5.50525 7.01642 5.68205C6.75892 5.83437 6.5 6.06544 6.5 6.3646V7.04169" stroke="#888B91" stroke-width="0.5" stroke-linecap="round"/>
<path d="M6.49999 9.20833C6.79915 9.20833 7.04166 8.96582 7.04166 8.66667C7.04166 8.36751 6.79915 8.125 6.49999 8.125C6.20084 8.125 5.95833 8.36751 5.95833 8.66667C5.95833 8.96582 6.20084 9.20833 6.49999 9.20833Z" fill="#888B91"/>
<path d="M11.9167 6.50001C11.9167 9.05343 11.9167 10.3302 11.1234 11.1234C10.3302 11.9167 9.05341 11.9167 6.5 11.9167C3.94655 11.9167 2.66983 11.9167 1.87658 11.1234C1.08333 10.3302 1.08333 9.05343 1.08333 6.50001C1.08333 3.94657 1.08333 2.66985 1.87658 1.8766C2.66983 1.08334 3.94655 1.08334 6.5 1.08334C9.05341 1.08334 10.3302 1.08334 11.1234 1.8766C11.6509 2.40404 11.8276 3.14522 11.8868 4.33334" stroke="#888B91" stroke-linecap="round"/>
</svg>
