<svg width="18" height="10" viewBox="0 0 18 10" fill="none" xmlns="http://www.w3.org/2000/svg">
<g filter="url(#filter0_i_600_1682)">
<path d="M12.9375 0H5.0625C2.27109 0 0 2.24306 0 5C0 7.75694 2.27109 10 5.0625 10H12.9375C15.7289 10 18 7.75694 18 5C18 2.24306 15.7289 0 12.9375 0ZM12.9375 8.88889C12.1587 8.88889 11.3975 8.66081 10.7499 8.23349C10.1024 7.80618 9.59774 7.19881 9.29972 6.48821C9.0017 5.77761 8.92373 4.99569 9.07566 4.24132C9.22759 3.48694 9.6026 2.79401 10.1533 2.25014C10.7039 1.70627 11.4055 1.33589 12.1693 1.18584C12.9331 1.03578 13.7248 1.11279 14.4443 1.40714C15.1638 1.70148 15.7788 2.19992 16.2114 2.83945C16.6441 3.47897 16.875 4.23085 16.875 5C16.8739 6.03106 16.4587 7.01957 15.7205 7.74864C14.9823 8.47771 13.9814 8.88779 12.9375 8.88889Z" fill="#38EF1E"/>
</g>
<defs>
<filter id="filter0_i_600_1682" x="0" y="0" width="18" height="14" filterUnits="userSpaceOnUse" color-interpolation-filters="sRGB">
<feFlood flood-opacity="0" result="BackgroundImageFix"/>
<feBlend mode="normal" in="SourceGraphic" in2="BackgroundImageFix" result="shape"/>
<feColorMatrix in="SourceAlpha" type="matrix" values="0 0 0 0 0 0 0 0 0 0 0 0 0 0 0 0 0 0 127 0" result="hardAlpha"/>
<feOffset dy="4"/>
<feGaussianBlur stdDeviation="2.15"/>
<feComposite in2="hardAlpha" operator="arithmetic" k2="-1" k3="1"/>
<feColorMatrix type="matrix" values="0 0 0 0 0 0 0 0 0 0 0 0 0 0 0 0 0 0 0.25 0"/>
<feBlend mode="normal" in2="shape" result="effect1_innerShadow_600_1682"/>
</filter>
</defs>
</svg>
