<svg width="50" height="50" viewBox="0 0 50 50" fill="none" xmlns="http://www.w3.org/2000/svg">
<path fill-rule="evenodd" clip-rule="evenodd" d="M25 50C13.2149 50 7.32232 50 3.66117 46.3387C-2.38419e-07 42.6777 0 36.785 0 25C0 13.2149 -2.38419e-07 7.32232 3.66117 3.66117C7.32232 -2.38419e-07 13.2149 0 25 0C36.785 0 42.6777 -2.38419e-07 46.3387 3.66117C50 7.32232 50 13.2149 50 25C50 36.785 50 42.6777 46.3387 46.3387C42.6777 50 36.785 50 25 50ZM35.0758 17.4242C35.808 18.1564 35.808 19.3436 35.0758 20.0758L22.5758 32.5758C21.8435 33.308 20.6565 33.308 19.9242 32.5758L14.9242 27.5758C14.1919 26.8435 14.1919 25.6565 14.9242 24.9242C15.6564 24.192 16.8436 24.192 17.5758 24.9242L21.25 28.5982L32.4242 17.4242C33.1565 16.692 34.3435 16.692 35.0758 17.4242Z" fill="#4C72A2"/>
</svg>
