<svg width="12" height="11" viewBox="0 0 12 11" fill="none" xmlns="http://www.w3.org/2000/svg">
<g clip-path="url(#clip0_881_490)">
<path d="M6.06891 7.50751V7.43314L6.15302 7.08734C6.15114 7.08131 6.15114 7.07479 6.15302 7.06875C6.21899 6.91621 6.29633 6.76949 6.3843 6.63L6.66814 6.33625C6.81364 6.21138 6.9889 6.13173 7.17447 6.10613C7.36005 6.08053 7.54867 6.10999 7.71943 6.19124L7.8666 6.2842C8.08514 6.48485 8.25264 6.74057 8.3537 7.02785L8.46584 7.4443C8.46337 7.4573 8.46366 7.47071 8.46669 7.48358C8.46972 7.49644 8.47541 7.50843 8.48336 7.51866V7.56328V7.63393L8.52541 8.10243C8.52541 8.13218 8.52541 8.1768 8.55695 8.17308C8.70946 8.1917 8.86349 8.1917 9.01601 8.17308H9.03703C9.21676 8.18423 9.39696 8.18423 9.57669 8.17308H9.64327C9.80726 8.18043 9.96848 8.12648 10.0988 8.02063C10.1626 7.95265 10.2121 7.87114 10.2441 7.78142C10.2762 7.69171 10.2899 7.59583 10.2846 7.50007C10.3126 7.33032 10.3126 7.1567 10.2846 6.98695V6.90887V6.84566V6.77501C10.2729 6.64858 10.2483 6.52389 10.211 6.40318C10.211 6.33625 10.1444 6.27304 10.211 6.20611H10.2495C10.3258 6.1952 10.4001 6.17266 10.4703 6.13918C10.5742 6.12012 10.6772 6.0953 10.7787 6.06482C10.8312 6.06482 10.8277 6.10944 10.8452 6.13547C10.8459 6.17646 10.8542 6.21691 10.8698 6.25445C10.8654 6.26166 10.8631 6.27005 10.8631 6.27862C10.8631 6.28719 10.8654 6.29558 10.8698 6.30279V6.34741L10.9749 6.77873V6.89399C10.9705 6.9012 10.9682 6.90959 10.9682 6.91816C10.9682 6.92673 10.9705 6.93513 10.9749 6.94233V7.01298V7.38481V7.64137C10.9491 7.80004 10.9128 7.95659 10.8663 8.10987C10.8242 8.13961 10.8487 8.19539 10.8207 8.23257C10.6778 8.47358 10.4704 8.66388 10.225 8.77916C10.0382 8.83884 9.84718 8.88236 9.65378 8.9093H9.5837L9.22276 8.93161H9.15618L8.58498 8.90558H8.5219C8.47985 8.90558 8.48686 8.93904 8.48686 8.96135C8.46855 9.16844 8.41761 9.37079 8.33618 9.55999L8.24156 9.73847L8.189 9.83514C8.17148 9.83514 8.16797 9.83514 8.16447 9.86861L7.87712 10.2107L7.52669 10.4896L7.12019 10.7201L6.72421 10.8688C6.71224 10.8667 6.69997 10.8676 6.6884 10.8715C6.67684 10.8754 6.66629 10.8821 6.65763 10.8911L6.49994 10.9283L6.41934 10.9506C6.32472 10.9915 6.28968 10.9506 6.26515 10.8465C6.24062 10.7424 6.20558 10.7052 6.17755 10.6346V10.616C6.17755 10.5044 6.07242 10.4189 6.08994 10.2962C6.25003 10.2839 6.4073 10.245 6.55601 10.1809C6.71931 10.1407 6.87548 10.0729 7.01857 9.98016C7.14612 9.91554 7.26416 9.83162 7.369 9.73103L7.41455 9.68641C7.52408 9.59893 7.61585 9.4889 7.68438 9.36292V9.3369C7.74629 9.24394 7.79362 9.14098 7.82455 9.032C7.85609 8.93904 7.82455 8.92045 7.75096 8.94276H7.68438C7.3297 8.95236 6.97558 8.90727 6.6331 8.8089L6.41584 8.70107L6.25814 8.56721L6.21609 8.51516L6.15302 8.42592L6.09344 8.28834C6.02796 8.03366 6.01956 7.76625 6.06891 7.50751ZM7.64233 7.07991C7.59767 7.00735 7.5357 6.94864 7.46272 6.90973C7.38974 6.87083 7.30835 6.85312 7.22683 6.85841C7.14531 6.8637 7.06656 6.89179 6.99859 6.93984C6.93062 6.98789 6.87585 7.05418 6.83985 7.13196C6.83985 7.22492 6.73472 7.28441 6.73472 7.38852C6.70612 7.47053 6.69302 7.55771 6.69618 7.64508C6.68583 7.70772 6.68964 7.77207 6.70731 7.83283C6.72498 7.8936 6.75599 7.94904 6.7978 7.9946C6.83828 8.04759 6.88887 8.09089 6.94625 8.12165C7.00363 8.15241 7.06649 8.16994 7.13071 8.17308C7.18172 8.18245 7.23388 8.18245 7.2849 8.17308H7.76849C7.81054 8.17308 7.8596 8.20282 7.89814 8.15449C7.91788 7.9705 7.90721 7.78427 7.8666 7.60418C7.86672 7.54663 7.85219 7.4901 7.82455 7.44058C7.80064 7.30476 7.73973 7.17936 7.64934 7.07991H7.64233Z" fill="#09090B"/>
<path d="M5.57477 8.34786C5.49999 8.51722 5.39393 8.66895 5.26289 8.79405C5.1535 8.87065 5.03585 8.93307 4.91246 8.97996H4.87041L4.60759 9.00227H4.54101L4.31674 8.97996H4.25016C4.19416 8.95596 4.13511 8.94093 4.07494 8.93534C4.07494 8.90931 4.03289 8.91303 4.00836 8.90931C3.87226 8.84879 3.74101 8.77667 3.61588 8.69365C3.49674 8.61185 3.40563 8.49659 3.28999 8.40735C3.25845 8.35901 3.23392 8.34786 3.21289 8.40735C3.10432 8.55682 2.96994 8.68301 2.81691 8.77917C2.72754 8.82403 2.63497 8.86133 2.54007 8.89072C2.27368 8.9447 1.99917 8.93326 1.73759 8.85726L1.60793 8.81636C1.48554 8.75666 1.36829 8.68574 1.25751 8.60442L1.20845 8.56352C1.12039 8.46411 1.04175 8.35576 0.973661 8.24003C0.973561 8.22941 0.97132 8.21894 0.967089 8.20932C0.962858 8.1997 0.956735 8.19115 0.949131 8.18425L0.900071 8.04668L0.829986 7.69716L0.80896 7.32533V6.00906C0.819128 5.92146 0.820303 5.83294 0.812464 5.74507V4.70023C0.83349 4.6333 0.812464 4.55894 0.836994 4.49573L1.10332 4.7746H1.12084C1.20942 4.88475 1.30546 4.9879 1.40819 5.08321L1.42922 5.10181C1.50631 5.17245 1.46426 5.27285 1.48178 5.35837V7.34392V7.41457C1.46652 7.48418 1.47266 7.55715 1.4993 7.62279V7.65998C1.53902 7.81503 1.62891 7.95031 1.75322 8.04209C1.87752 8.13387 2.0283 8.1763 2.17913 8.16194C2.3688 8.14633 2.54846 8.06538 2.69075 7.93141C2.79551 7.85602 2.87906 7.75195 2.93255 7.63023C2.99824 7.52062 3.04897 7.4017 3.08323 7.27699L3.1393 7.16173L3.16033 7.10967L3.34956 6.76759C3.34956 6.76759 3.37058 6.749 3.37409 6.73041C3.46448 6.61029 3.5616 6.49605 3.66494 6.38833L3.69999 6.3623C3.80424 6.28965 3.91592 6.22978 4.03289 6.18382H4.09947H4.16255H4.22913C4.36855 6.18126 4.50796 6.18996 4.64614 6.20985C4.68744 6.23361 4.73264 6.24875 4.7793 6.25447C4.90147 6.31029 5.01873 6.37748 5.12973 6.45526H5.14725C5.24991 6.55487 5.33949 6.66868 5.41358 6.79362C5.41358 6.81221 5.41358 6.82708 5.4346 6.83452L5.54323 7.08736V7.13198C5.54323 7.13198 5.54323 7.15429 5.56075 7.15801C5.57828 7.16173 5.58178 7.23237 5.58528 7.26956C5.61741 7.45478 5.63383 7.64268 5.63434 7.83102V7.90166C5.62357 8.0516 5.60367 8.20064 5.57477 8.34786ZM3.8787 7.23237C3.87501 7.23283 3.87144 7.23407 3.8682 7.236C3.86496 7.23794 3.86212 7.24054 3.85983 7.24366C3.85755 7.24677 3.85588 7.25034 3.8549 7.25414C3.85393 7.25795 3.85368 7.26193 3.85417 7.26584C3.74937 7.38932 3.67581 7.539 3.64041 7.70088C3.63649 7.70502 3.63338 7.70995 3.63126 7.71537C3.62914 7.72079 3.62804 7.72661 3.62804 7.73248C3.62804 7.73835 3.62914 7.74417 3.63126 7.74959C3.63338 7.75502 3.63649 7.75994 3.64041 7.76409C3.75254 7.93041 3.90186 8.06456 4.07494 8.15451L4.11699 8.17682C4.11699 8.17682 4.11699 8.17682 4.14152 8.17682C4.30176 8.27469 4.49195 8.30142 4.67067 8.25118C4.7455 8.23164 4.8137 8.19031 4.86757 8.13183C4.92144 8.07336 4.95883 8.00008 4.97554 7.92025C4.98262 7.8822 4.98262 7.84304 4.97554 7.80499V7.73434C4.97669 7.60495 4.94781 7.47725 4.89144 7.36251V7.3402C4.84413 7.19468 4.74641 7.0737 4.6181 7.00184H4.59358C4.46706 6.95198 4.32862 6.94753 4.1995 6.98917C4.07037 7.03082 3.95768 7.11625 3.8787 7.23237Z" fill="#09090B"/>
<path d="M10.2496 5.02L10.2285 5.00141C10.1725 4.94935 10.1549 4.89729 10.2285 4.84152L10.2741 4.79318C10.3686 4.70781 10.4564 4.61456 10.5369 4.51431L10.607 4.44366C10.649 4.44366 10.6561 4.48457 10.6911 4.492L10.7331 4.54034C10.8148 4.64062 10.9039 4.73387 10.9995 4.81921L11.0415 4.86755C11.0801 4.90101 11.0731 4.93819 11.0415 4.97538C10.9299 5.07588 10.8256 5.18526 10.7296 5.30258L10.7121 5.32489C10.6631 5.35836 10.6245 5.43644 10.5614 5.3472H10.5404C10.4514 5.2305 10.3542 5.12112 10.2496 5.02Z" fill="#09090B"/>
<path d="M1.74818 2.73329V2.80393C1.74283 2.89009 1.74992 2.97661 1.7692 3.0605C1.76241 3.07493 1.75888 3.09084 1.75888 3.10697C1.75888 3.12311 1.76241 3.13902 1.7692 3.15345C1.79109 3.39141 1.88445 3.61561 2.03553 3.79299L2.05655 3.81902C2.14245 3.93846 2.25425 4.03412 2.38245 4.09789C2.41666 4.12776 2.4559 4.15047 2.49809 4.16482C2.79555 4.27188 3.10961 4.31732 3.42322 4.29868H3.55638C3.71734 4.30846 3.8782 4.27789 4.02595 4.20944H4.0645C4.12861 4.19123 4.18913 4.161 4.24322 4.1202C4.47385 3.99285 4.66038 3.79103 4.77587 3.54387C4.84858 3.41472 4.8929 3.26983 4.90553 3.11999C4.91037 3.11298 4.91298 3.10451 4.91298 3.09582C4.91298 3.08713 4.91037 3.07866 4.90553 3.07165C4.93532 2.97411 4.95299 2.87286 4.95809 2.77047V2.68867C4.96585 2.49346 4.94697 2.29809 4.90202 2.10862C4.88423 1.95385 4.85014 1.80169 4.8004 1.65499C4.79768 1.61241 4.78438 1.57136 4.76185 1.536C4.75573 1.50323 4.74754 1.47093 4.73732 1.43933C4.70578 1.35009 4.63219 1.25342 4.65322 1.18277C4.67424 1.11212 4.8039 1.127 4.87749 1.07494C5.01935 1.03489 5.15864 0.985211 5.2945 0.926208C5.33655 0.926208 5.32954 0.981983 5.35758 1.00057L5.49424 1.44305L5.57484 1.81488V1.88552C5.5724 1.89793 5.57272 1.91078 5.57576 1.92304C5.5788 1.9353 5.58448 1.94664 5.59236 1.95617V2.02682C5.64724 2.41451 5.65666 2.80792 5.6204 3.19807V3.24269C5.58791 3.41658 5.5446 3.588 5.49074 3.75581C5.43117 3.88595 5.36809 4.01237 5.30501 4.12764C5.19832 4.27105 5.08115 4.40532 4.95459 4.52921C4.85997 4.59242 4.76536 4.65563 4.66724 4.71513C4.47282 4.81791 4.26834 4.89771 4.05749 4.95309C4.04369 4.94664 4.02877 4.94331 4.01369 4.94331C3.99861 4.94331 3.98369 4.94664 3.96989 4.95309L3.37416 5.01259H2.9992C2.76869 4.98361 2.54036 4.93764 2.31587 4.87501C2.28507 4.85523 2.25018 4.84374 2.21424 4.84155L1.86382 4.6482L1.82877 4.62961L1.54493 4.36933L1.51339 4.34702L1.28912 3.9975L1.25057 3.91942C1.2443 3.87881 1.22865 3.84049 1.20501 3.80787L1.12091 3.45835C1.06435 3.0895 1.0561 2.71412 1.09638 2.34287L1.12091 2.13465C1.1702 1.87239 1.23219 1.61301 1.30664 1.35753C1.31582 1.34795 1.3228 1.33627 1.32706 1.32337C1.33131 1.31048 1.33272 1.29672 1.33117 1.28316C1.34745 1.25787 1.36041 1.23035 1.36971 1.20136C1.39074 1.1084 1.43279 1.09353 1.51339 1.14187C1.59399 1.19021 1.74818 1.24226 1.86382 1.2906L2.00048 1.35753C1.94336 1.51598 1.89767 1.67882 1.86382 1.84462C1.83347 1.90928 1.81786 1.98061 1.81826 2.05284C1.78875 2.16557 1.77228 2.28169 1.7692 2.39864V2.47301C1.75146 2.55841 1.74439 2.64593 1.74818 2.73329Z" fill="#09090B"/>
<path d="M2.99919 0.465125L3.04125 0.420506C3.09731 0.364732 3.14988 0.30524 3.20945 0.253184C3.26902 0.201128 3.26552 0.167664 3.32509 0.167664L3.70005 0.576673C3.72458 0.602701 3.76663 0.625011 3.7386 0.673348C3.6692 0.735824 3.60474 0.80422 3.54586 0.877853C3.50797 0.902596 3.47662 0.937139 3.45475 0.978246C3.40491 1.01502 3.3611 1.06024 3.32509 1.1121H3.28654C3.20397 1.0127 3.11499 0.919522 3.02022 0.833234L2.97817 0.784896L2.84851 0.632447L2.99919 0.465125Z" fill="#09090B"/>
<path d="M9.78345 4.79689V4.81548C9.82901 4.87497 9.89559 4.92703 9.80098 4.99768L9.50662 5.31001V5.3286C9.44704 5.41412 9.40149 5.35463 9.35593 5.3286L9.31038 5.28026C9.22992 5.18002 9.14203 5.08677 9.04756 5.00139L9.002 4.95306C8.95995 4.91215 9.002 4.88985 9.02303 4.8601L9.06508 4.81548C9.16072 4.72886 9.24977 4.63437 9.3314 4.53289L9.37345 4.48827C9.4085 4.46224 9.44004 4.41763 9.48559 4.48827H9.50311C9.58777 4.59974 9.68159 4.70302 9.78345 4.79689Z" fill="#09090B"/>
</g>
<defs>
<clipPath id="clip0_881_490">
<rect width="10.25" height="10.7904" fill="white" transform="translate(0.8125 0.167664)"/>
</clipPath>
</defs>
</svg>
