<svg width="11" height="13" viewBox="0 0 11 13" fill="none" xmlns="http://www.w3.org/2000/svg">
<path fill-rule="evenodd" clip-rule="evenodd" d="M4.43205 0.605669C4.25269 0.701582 4.16448 0.875554 4.1456 1.07233C4.13747 1.16751 4.12526 1.26202 4.10865 1.35615C4.07341 1.55594 4.00664 1.83827 3.88153 2.15754C3.63195 2.79442 3.15471 3.5692 2.23367 4.14482C0.935689 4.95603 0.454228 6.77876 0.65997 8.41047C0.870017 10.0764 1.82138 11.8031 3.7037 12.4305C3.89125 12.4931 4.09797 12.4484 4.24302 12.3141C4.42051 12.1498 4.42956 11.932 4.38445 11.7121C4.35135 11.5507 4.28124 11.1467 4.28124 10.6641C4.28124 10.5079 4.28847 10.3477 4.30515 10.187C4.59444 10.8501 4.98661 11.3337 5.37856 11.6796C5.96161 12.1941 6.51259 12.3811 6.67661 12.4294C6.80108 12.4661 6.93336 12.4684 7.05523 12.4196C8.4945 11.8439 9.40059 11.0626 9.90678 10.1694C10.4118 9.27812 10.483 8.33838 10.37 7.51012C10.2576 6.68613 9.96084 5.95017 9.69992 5.42833C9.50259 5.03368 9.32059 4.75093 9.23707 4.62716C9.13464 4.47549 9.00117 4.35841 8.8111 4.33679C8.65965 4.31957 8.50793 4.36697 8.3932 4.46735L7.5455 5.20915C7.6183 4.03263 7.20441 3.04416 6.69069 2.29924C6.31765 1.75831 5.892 1.34288 5.56235 1.0636C5.39676 0.923275 5.25316 0.815489 5.14927 0.741681C5.09722 0.70474 5.05497 0.676183 5.02463 0.656201C4.84502 0.537841 4.6296 0.500041 4.43205 0.605669ZM3.20548 10.972C3.20068 10.8736 3.19791 10.7706 3.19791 10.6641C3.19792 10.0938 3.27742 9.37405 3.59226 8.70503C3.69772 8.481 3.82958 8.2626 3.9937 8.05747C4.13179 7.88484 4.36092 7.81345 4.57261 7.87709C4.7843 7.94074 4.93612 8.12664 4.95611 8.34677C5.07864 9.6946 5.62052 10.4483 6.09529 10.8673C6.3379 11.0814 6.57196 11.2155 6.7415 11.2951C7.39583 11.375 8.68765 10.1233 8.96423 9.63529C9.32249 9.00311 9.38678 8.31785 9.2966 7.65653C9.19124 6.88417 8.8748 6.16944 8.62303 5.70577L6.94002 7.17845C6.74762 7.34686 6.46362 7.35774 6.25887 7.20462C6.05412 7.05143 5.98436 6.77599 6.0915 6.54384C6.80439 4.99924 6.39646 3.78078 5.79889 2.91428C5.56164 2.57034 5.29465 2.28395 5.05583 2.06211C5.01245 2.21435 4.95817 2.37935 4.89019 2.5528C4.79367 2.7991 4.66919 3.06331 4.50897 3.33228C4.15017 3.93457 3.6122 4.56078 2.80782 5.0635C2.02116 5.55513 1.55475 6.84701 1.73479 8.27495C1.87053 9.35151 2.35964 10.3591 3.20548 10.972Z" fill="#888B91"/>
</svg>
