<svg width="46" height="51" viewBox="0 0 46 51" fill="none" xmlns="http://www.w3.org/2000/svg">
<path d="M38 10.5L35.9978 40.5322C35.8225 43.1625 35.7347 44.4777 35.1667 45.475C34.6665 46.353 33.912 47.0588 33.0028 47.4995C31.97 48 30.6517 48 28.0155 48H17.9844C15.3482 48 14.03 48 12.9972 47.4995C12.0879 47.0588 11.3335 46.353 10.8333 45.475C10.2652 44.4777 10.1775 43.1625 10.0021 40.5322L8 10.5M3 10.5H43M33 10.5L32.3235 8.47017C31.6677 6.50312 31.3398 5.5196 30.7318 4.79245C30.1948 4.15032 29.5052 3.6533 28.7262 3.34695C27.844 3 26.8075 3 24.734 3H21.266C19.1925 3 18.156 3 17.2738 3.34695C16.4948 3.6533 15.8052 4.15032 15.2682 4.79245C14.6601 5.5196 14.3323 6.50312 13.6766 8.47017L13 10.5M28 20.5V38M18 20.5V38" stroke="white" stroke-width="5" stroke-linecap="round" stroke-linejoin="round"/>
</svg>
