<svg width="60" height="60" viewBox="0 0 60 60" fill="none" xmlns="http://www.w3.org/2000/svg">
<path d="M8.75 11.25H12.6462C14.3855 11.25 15.2551 11.25 15.9099 11.7219C16.5646 12.1938 16.8396 13.0188 17.3896 14.6688L18.75 18.75" stroke="white" stroke-width="2.5" stroke-linecap="round"/>
<path d="M43.75 43.75H20.1273C19.7618 43.75 19.5791 43.75 19.4404 43.7345C17.9714 43.57 16.9651 42.1737 17.2736 40.7282C17.3027 40.5917 17.3605 40.4185 17.4761 40.0717C17.6044 39.6867 17.6686 39.4943 17.7395 39.3245C18.4652 37.5855 20.1069 36.402 21.9862 36.2635C22.1698 36.25 22.3727 36.25 22.7784 36.25H36.25" stroke="white" stroke-width="2.5" stroke-linecap="round" stroke-linejoin="round"/>
<path d="M35.4468 36.25H27.844C24.6459 36.25 23.0469 36.25 21.7945 35.4242C20.5422 34.5985 19.9123 33.1287 18.6525 30.1892L18.2305 29.2045C16.2067 24.4823 15.1949 22.1213 16.3064 20.4357C17.4179 18.75 19.9866 18.75 25.124 18.75H38.3263C44.0738 18.75 46.9475 18.75 48.0315 20.6178C49.1155 22.4856 47.6895 24.9807 44.838 29.971L44.1293 31.2115C42.7243 33.6698 42.022 34.899 40.858 35.5745C39.694 36.25 38.2783 36.25 35.4468 36.25Z" stroke="white" stroke-width="2.5" stroke-linecap="round"/>
<path d="M42.5 52.5C43.8807 52.5 45 51.3807 45 50C45 48.6193 43.8807 47.5 42.5 47.5C41.1193 47.5 40 48.6193 40 50C40 51.3807 41.1193 52.5 42.5 52.5Z" fill="white"/>
<path d="M22.5 52.5C23.8807 52.5 25 51.3807 25 50C25 48.6193 23.8807 47.5 22.5 47.5C21.1193 47.5 20 48.6193 20 50C20 51.3807 21.1193 52.5 22.5 52.5Z" fill="white"/>
</svg>
