<svg width="61" height="61" viewBox="0 0 61 61" fill="none" xmlns="http://www.w3.org/2000/svg">
<g clip-path="url(#clip0_992_1423)">
<path fill-rule="evenodd" clip-rule="evenodd" d="M30.5101 28.9015C27.4032 28.9015 24.8851 26.3834 24.8851 23.2765C24.8851 20.1697 27.4032 17.6515 30.5101 17.6515C33.617 17.6515 36.1351 20.1697 36.1351 23.2765C36.1351 26.3834 33.617 28.9015 30.5101 28.9015ZM30.5101 13.9015C25.3332 13.9015 21.1351 18.0978 21.1351 23.2765C21.1351 28.4553 25.3332 32.6515 30.5101 32.6515C35.687 32.6515 39.8851 28.4553 39.8851 23.2765C39.8851 18.0978 35.687 13.9015 30.5101 13.9015ZM30.5101 55.1515C27.392 55.1684 11.7601 31.1159 11.7601 23.2765C11.7601 12.9228 20.1545 4.52654 30.5101 4.52654C40.8657 4.52654 49.2601 12.9228 49.2601 23.2765C49.2601 31.0109 33.5795 55.1684 30.5101 55.1515ZM30.5101 0.776535C18.0845 0.776535 8.0101 10.8509 8.0101 23.2765C8.0101 32.6853 26.7695 60.7972 30.5101 60.7765C34.1926 60.7972 53.0101 32.5578 53.0101 23.2765C53.0101 10.8509 42.9357 0.776535 30.5101 0.776535Z" fill="white"/>
</g>
<defs>
<clipPath id="clip0_992_1423">
<rect width="60" height="60" fill="white" transform="translate(0.510101 0.776535)"/>
</clipPath>
</defs>
</svg>
