<svg width="60" height="60" viewBox="0 0 60 60" fill="none" xmlns="http://www.w3.org/2000/svg">
<path d="M25 30L35 40M35 30L25 40M45 15L42.9978 45.0322C42.8225 47.6625 42.7347 48.9777 42.1667 49.975C41.6665 50.853 40.912 51.5588 40.0028 51.9995C38.97 52.5 37.6517 52.5 35.0155 52.5H24.9844C22.3482 52.5 21.03 52.5 19.9972 51.9995C19.0879 51.5588 18.3335 50.853 17.8333 49.975C17.2652 48.9777 17.1775 47.6625 17.0021 45.0322L15 15M10 15H50M40 15L39.3235 12.9702C38.6677 11.0031 38.3398 10.0196 37.7318 9.29245C37.1948 8.65032 36.5052 8.1533 35.7262 7.84695C34.844 7.5 33.8075 7.5 31.734 7.5H28.266C26.1925 7.5 25.156 7.5 24.2738 7.84695C23.4948 8.1533 22.8052 8.65032 22.2682 9.29245C21.6601 10.0196 21.3323 11.0031 20.6766 12.9702L20 15" stroke="white" stroke-width="5" stroke-linecap="round" stroke-linejoin="round"/>
</svg>
